<svg height="496pt" viewBox="0 0 496 496" width="496pt" xmlns="http://www.w3.org/2000/svg"><g fill="#f0d0b4"><path d="m424 384 12.640625-25.28125c2.238281-4.398438 3.359375-9.277344 3.359375-14.238281v-46.242188c0-6.636719-2.078125-13.117187-6-18.558593l-30.960938-43.441407c-2-2.796875-3.039062-6.078125-3.039062-9.4375v-2.722656c0-4.398437 1.761719-8.476563 4.71875-11.359375 2.882812-2.957031 6.960938-4.71875 11.359375-4.71875 5.042969 0 9.683594 2.320312 12.722656 6.238281l45.757813 58.800781c3.601562 4.5625 5.839844 10 6.5625 15.679688l6.640625 53.28125c.160156 1.359375.238281 2.640625.238281 4v68c0 1.359375-.078125 2.640625-.238281 4l-7.761719 62v8h-56v-56l-59.039062-59.039062c-3.199219-3.199219-4.960938-7.519532-4.960938-12 0-4.640626 1.921875-8.960938 4.960938-12 3.039062-3.039063 7.359374-4.960938 12-4.960938 4.480468 0 8.800781 1.761719 12 4.960938zm0 0"/><path d="m296 280c0-10.160156 9.441406-19.039062 20.078125-16.398438 7.203125 1.839844 11.921875 8.957032 11.921875 16.398438v118.160156c0 6.960938-2.238281 13.679688-6.398438 19.199219l-11.203124 14.960937c-4.160157 5.519532-6.398438 12.238282-6.398438 19.199219v36.480469h-112v-36.558594c0-7.441406-2.558594-14.5625-7.199219-20.242187l-17.601562-21.519531c-4.640625-5.679688-7.199219-12.878907-7.199219-20.238282v-84.960937c0-4.320313 3.441406-7.839844 7.839844-8h.558594c17.441406 0 31.601562 14 31.601562 31.519531v-96.878906c0-7.921875 5.441406-15.359375 13.28125-16.640625 10.078125-1.601563 18.71875 6.078125 18.71875 15.839843 0-8.878906 7.199219-16.082031 16.078125-16.082031.882813 0 1.761719.082031 2.640625.242188 7.839844 1.28125 13.28125 8.71875 13.28125 16.640625 0-8.800782 7.199219-16 16.078125-16 .882813 0 1.761719.078125 2.640625.238281 7.839844 1.28125 13.28125 8.640625 13.28125 16.640625zm0 0"/><path d="m72 384 35.039062-35.039062c3.199219-3.199219 7.519532-4.960938 12-4.960938 4.640626 0 8.960938 1.921875 12 4.960938 3.039063 3.039062 4.960938 7.359374 4.960938 12 0 4.480468-1.761719 8.800781-4.960938 12l-59.039062 59.039062v56h-56v-8l-7.761719-62c-.160156-1.359375-.238281-2.640625-.238281-4v-68c0-1.359375.078125-2.640625.238281-4l6.640625-53.28125c.722656-5.679688 2.960938-11.117188 6.5625-15.679688l45.757813-58.800781c3.039062-3.917969 7.679687-6.238281 12.722656-6.238281 8.878906 0 16.078125 7.199219 16.078125 16.078125v2.722656c0 3.359375-1.039062 6.640625-3.039062 9.4375l-30.960938 43.441407c-3.921875 5.441406-6 11.921874-6 18.558593v46.242188c0 4.960937 1.121094 9.839843 3.359375 14.238281zm0 0"/></g><path d="m448 136v32h-104l-2.878906-.320312c1.917968-3.519532 2.878906-7.441407 2.878906-11.519532v-20.160156zm0 0" fill="#a0d468"/><path d="m424 104v32h-80v-23.601562c0-.160157 0-.238282 0-.398438zm0 0" fill="#a0d468"/><path d="m336.878906 173.441406c-4.640625 4.558594-10.878906 7.117188-17.359375 7.117188-1.28125 0-2.640625-.078125-3.917969-.320313l-67.601562-11.277343h-.078125c.078125-.320313.078125-.640626.078125-.960938v-68.398438l67.601562-11.28125c7.757813-1.28125 15.679688 1.28125 21.277344 6.800782 4.480469 4.480468 7.042969 10.558594 7.121094 16.878906v.398438 43.761718c0 4.078125-.960938 8-2.878906 11.519532-1.121094 2.082031-2.5625 4-4.242188 5.761718zm0 0" fill="#ff826e"/><path d="m216 104.960938v58.640624l-64.238281-10.722656c-9.121094-1.519531-15.761719-9.359375-15.761719-18.640625 0-9.199219 6.640625-17.117187 15.761719-18.558593zm0 0" fill="#ff826e"/><path d="m248 96v72c0 .320312 0 .640625-.078125.960938-.480469 8.398437-7.441406 15.039062-15.921875 15.039062-4.398438 0-8.398438-1.761719-11.28125-4.71875-2.957031-2.882812-4.71875-6.882812-4.71875-11.28125v-72c0-8.800781 7.199219-16 16-16 4.398438 0 8.398438 1.761719 11.28125 4.71875 2.957031 2.882812 4.71875 6.882812 4.71875 11.28125zm0 0" fill="#969faa"/><path d="m495.6875 341.03125-6.664062-53.296875c-.886719-7.140625-3.695313-13.910156-8.113282-19.589844l-45.757812-58.832031c-4.601563-5.921875-11.535156-9.3125-19.03125-9.3125-13.296875 0-24.121094 10.824219-24.121094 24.121094v2.71875c0 5.054687 1.550781 9.902344 4.496094 14.015625l31.03125 43.457031c2.929687 4.085938 4.472656 8.910156 4.472656 13.945312v46.191407c0 3.703125-.871094 7.414062-2.535156 10.734375l-7.65625 15.3125-27.183594-27.183594c-4.714844-4.710938-10.984375-7.3125-17.65625-7.3125-13.769531 0-24.96875 11.199219-24.96875 24.96875 0 6.671875 2.601562 12.941406 7.3125 17.65625l56.6875 56.6875v44.6875h-104v-28.480469c0-5.160156 1.703125-10.273437 4.800781-14.398437l11.199219-14.9375c5.160156-6.878906 8-15.398438 8-24v-118.183594c0-11.511719-7.382812-21.441406-17.953125-24.128906-4.71875-1.207032-9.597656-.910156-14.039063.777344v-24.648438c0-12.128906-8.609374-22.671875-20.023437-24.527344-7.023437-1.160156-14.144531.824219-19.511719 5.382813-.03125.023437-.066406.054687-.105468.089843-3.359376-3.28125-7.632813-5.5625-12.382813-6.328124-6.992187-1.160157-14.136719.816406-19.511719 5.382812-.160156.128906-.3125.265625-.464844.398438-.152343-.132813-.304687-.269532-.464843-.398438-5.367188-4.566406-12.488281-6.542969-19.511719-5.382812-11.421875 1.855468-20.03125 12.398437-20.03125 24.527343v65.320313c-6.992188-5.226563-15.367188-8.058594-24.34375-7.953125-8.632812.183593-15.65625 7.359375-15.65625 16v84.929687c0 9.191406 3.207031 18.183594 9.03125 25.320313l17.542969 21.460937c3.496093 4.273438 5.425781 9.671875 5.425781 15.191406v28.585938h-104v-44.6875l56.6875-56.6875c4.710938-4.714844 7.3125-10.984375 7.3125-17.65625 0-13.769531-11.199219-24.96875-24.96875-24.96875-6.671875 0-12.941406 2.601562-17.65625 7.3125l-27.183594 27.183594-7.65625-15.3125c-1.664062-3.320313-2.535156-7.03125-2.535156-10.734375v-46.191407c0-5.035156 1.542969-9.859374 4.472656-13.953124l31.03125-43.457032c2.945313-4.113281 4.496094-8.960937 4.496094-14.015625v-2.71875c0-13.289062-10.824219-24.113281-24.121094-24.113281-7.496094 0-14.429687 3.390625-19.039062 9.3125l-45.761719 58.832031c-4.414063 5.679688-7.222656 12.457031-8.109375 19.589844l-6.664062 53.296875c-.199219 1.648438-.304688 3.304688-.304688 4.960938v68.015624c0 1.664063.105469 3.3125.3125 4.960938l7.6875 61.527344v15.503906h480v-15.503906l7.6875-61.535156c.207031-1.640626.3125-3.296876.3125-4.953126v-68.015624c0-1.65625-.105469-3.3125-.3125-4.960938zm-304.71875 85.066406-17.542969-21.464844c-3.496093-4.28125-5.425781-9.671874-5.425781-15.191406v-84.9375c6.304688-.128906 12.382812 2.238282 16.945312 6.703125 4.550782 4.457031 7.054688 10.425781 7.054688 16.792969v40h16v-136.855469c0-4.296875 2.894531-8.136719 6.601562-8.746093 2.4375-.382813 4.757813.242187 6.574219 1.785156 1.800781 1.527344 2.824219 3.753906 2.824219 6.105468v113.710938h16v-113.710938c0-2.351562 1.023438-4.578124 2.824219-6.105468 1.816406-1.550782 4.144531-2.199219 6.582031-1.785156 3.699219.601562 6.59375 4.441406 6.59375 8.746093v112.855469h16v-112.855469c0-2.351562 1.023438-4.578125 2.824219-6.105469 1.816406-1.542968 4.128906-2.167968 6.574219-1.78125 3.707031.605469 6.601562 4.445313 6.601562 8.742188v112h16v-64.023438c0-2.710937 1.367188-5.464843 3.574219-7.175781 1.363281-1.058593 3.617187-2.167969 6.523437-1.417969 3.414063.863282 5.902344 4.488282 5.902344 8.617188v118.183594c0 5.160156-1.703125 10.28125-4.800781 14.402344l-11.199219 14.941406c-5.160156 6.878906-8 15.402344-8 24v28.472656h-96v-28.585938c0-9.199218-3.207031-18.191406-9.03125-25.316406zm-174.785156-9.105468c-.121094-.992188-.183594-1.992188-.183594-2.984376v-68.015624c0-.992188.0625-1.992188.183594-2.976563l6.664062-53.296875c.535156-4.285156 2.214844-8.34375 4.871094-11.757812l45.753906-58.832032c1.550782-1.984375 3.886719-3.128906 6.40625-3.128906 4.480469 0 8.121094 3.640625 8.121094 8.121094v2.71875c0 1.695312-.519531 3.335937-1.511719 4.71875l-31.03125 43.449218c-4.882812 6.816407-7.457031 14.855469-7.457031 23.25v46.191407c0 6.175781 1.464844 12.359375 4.222656 17.886719l6.832032 13.664062h-3.054688v16h19.3125l37.375-37.375c1.695312-1.6875 3.945312-2.625 6.34375-2.625 4.945312 0 8.96875 4.023438 8.96875 8.96875 0 2.398438-.9375 4.648438-2.625 6.34375l-61.375 61.375v51.3125h-40zm463.816406-2.984376c0 1-.0625 1.992188-.183594 2.976563l-7.753906 62.023437-.0625.992188h-40v-51.3125l-61.375-61.375c-1.6875-1.695312-2.625-3.945312-2.625-6.34375 0-4.945312 4.023438-8.96875 8.96875-8.96875 2.398438 0 4.648438.9375 6.34375 2.625l37.375 37.375h19.3125v-16h-3.054688l6.832032-13.664062c2.757812-5.527344 4.222656-11.710938 4.222656-17.886719v-46.191407c0-8.386718-2.574219-16.425781-7.449219-23.25l-31.03125-43.457031c-1-1.382812-1.519531-3.015625-1.519531-4.71875v-2.71875c0-4.472656 3.640625-8.113281 8.121094-8.113281 2.519531 0 4.855468 1.144531 6.40625 3.136719l45.761718 58.832031c2.65625 3.40625 4.335938 7.472656 4.871094 11.757812l6.664063 53.289063c.113281.984375.175781 1.984375.175781 2.976563zm0 0"/><path d="m240 24v49.367188c-2.503906-.878907-5.191406-1.367188-8-1.367188-13.230469 0-24 10.769531-24 24v2.160156l-57.535156 9.59375c-13.015625 2.167969-22.464844 13.316406-22.464844 26.519532 0 13.199218 9.449219 24.351562 22.464844 26.519531l57.78125 9.632812c1.234375 12.078125 11.347656 21.574219 23.753906 21.574219 9.65625 0 17.9375-5.761719 21.742188-13.992188l60.570312 10.097657c1.765625.292969 3.535156.4375 5.296875.4375 8.511719 0 16.796875-3.367188 22.902344-9.480469.945312-.941406 1.703125-2.023438 2.519531-3.0625h110.96875v-48h-24v-32.839844l-81.441406 8.144532c-1.503906-5.152344-4.132813-9.929688-8.039063-13.824219-7.367187-7.367188-17.902343-10.761719-28.207031-9.039063l-58.3125 9.71875v-66.160156c0-13.230469-10.769531-24-24-24h-136v16h136c4.40625 0 8 3.59375 8 8zm-96 110.273438c0-5.34375 3.832031-9.859376 9.097656-10.738282l54.902344-9.152344v39.785157l-54.902344-9.152344c-5.265625-.878906-9.097656-5.398437-9.097656-10.742187zm96 33.726562c0 4.40625-3.59375 8-8 8s-8-3.59375-8-8v-72c0-4.40625 3.59375-8 8-8s8 3.59375 8 8zm200-8h-88.375c.152344-1.273438.375-2.519531.375-3.824219v-12.175781h88zm-24-32h-64v-8.761719l64-6.398437zm-144-24.289062v16.289062h16v-18.953125l28.953125-4.824219c5.191406-.871094 10.527344.839844 14.253906 4.578125 3.050781 3.039063 4.792969 7.253907 4.792969 11.558594v43.816406c0 4.367188-1.703125 8.480469-4.792969 11.566407-3 3-7.039062 4.601562-11.207031 4.707031v-20.449219h-16v18.160156l-48-8v-55.777344zm0 0"/><path d="m64 0h16v16h-16zm0 0"/><path d="m32 0h16v16h-16zm0 0"/><path d="m0 0h16v16h-16zm0 0"/><path d="m0 32h176v16h-176zm0 0"/><path d="m0 64h176v16h-176zm0 0"/></svg>