<svg height="479pt" viewBox="-52 1 479 479.99983" width="479pt" xmlns="http://www.w3.org/2000/svg"><g fill="#8bb53c"><path d="m128.464844 248h16v45.503906h-16zm0 0"/><path d="m81.546875 283.992188 29.335937-50.664063 13.84375 8.015625-29.332031 50.664062zm0 0"/><path d="m146.289062 240.125 13.699219-8.253906 31.332031 52-13.699218 8.253906zm0 0"/></g><path d="m128.464844 232h16v24h-16zm0 0" fill="#769c30"/><path d="m124.722656 241.34375-13.847656-8.015625-13.121094 22.671875h18.480469zm0 0" fill="#769c30"/><path d="m159.984375 231.871094-13.703125 8.257812 9.570312 15.871094h18.671876zm0 0" fill="#769c30"/><path d="m136.464844 472c-9.042969 0-16.574219-6.933594-17.328125-15.945312l-12-144.167969c-.683594-8.203125 2.097656-16.316407 7.671875-22.375 5.570312-6.058594 13.425781-9.507813 21.65625-9.511719 8.234375 0 16.09375 3.445312 21.671875 9.503906 5.574219 6.058594 8.359375 14.179688 7.671875 22.382813l-12 144.167969c-.753906 9.019531-8.292969 15.953124-17.34375 15.945312zm0 0" fill="#fd882f"/><path d="m253.515625 462.207031c-8.5 3.09375-17.949219-.84375-21.738281-9.054687l-60.589844-131.359375c-3.449219-7.476563-3.609375-16.054688-.441406-23.65625 3.164062-7.597657 9.367187-13.527344 17.105468-16.34375 7.738282-2.816407 16.300782-2.261719 23.613282 1.527343 7.308594 3.785157 12.703125 10.460938 14.863281 18.40625l38.019531 139.578126c2.375 8.722656-2.335937 17.8125-10.832031 20.902343zm0 0" fill="#fd6f0a"/><path d="m19.914062 462.207031c-8.5-3.089843-13.210937-12.183593-10.832031-20.910156l38.015625-139.578125c2.164063-7.945312 7.554688-14.621094 14.867188-18.40625 7.3125-3.789062 15.875-4.34375 23.613281-1.527344 7.734375 2.816406 13.9375 8.742188 17.105469 16.34375 3.164062 7.601563 3.003906 16.179688-.441406 23.65625l-60.59375 131.359375c-3.785157 8.210938-13.234376 12.152344-21.734376 9.0625zm0 0" fill="#fd6f0a"/><path d="m88.464844 96h-16v-60c0-19.882812 16.117187-36 36-36 19.882812 0 36 16.117188 36 36v12h-16v-12c0-11.046875-8.953125-20-20-20-11.042969 0-20 8.953125-20 20zm0 0" fill="#769c30"/><path d="m224.464844 112-25.367188-50.734375c-4.066406-8.128906-12.375-13.265625-21.464844-13.265625h-81.167968c0 22.089844 17.910156 40 40 40h-56c-17.671875 0-32 14.328125-32 32v96c0 17.671875 14.328125 32 32 32h288v-136zm0 0" fill="#feb784"/><path d="m96.464844 88h72c8.835937 0 16 7.164062 16 16v128c0 8.835938-7.164063 16-16 16h-72c-17.671875 0-32-14.328125-32-32v-96c0-17.671875 14.328125-32 32-32zm0 0" fill="#f4a876"/><path d="m80.464844 88h72c8.835937 0 16 7.164062 16 16v128c0 8.835938-7.164063 16-16 16h-72c-17.671875 0-32-14.328125-32-32v-96c0-17.671875 14.328125-32 32-32zm0 0" fill="#fec9a3"/><path d="m96.464844 120h72v16h-72zm0 0" fill="#f7aa72"/><path d="m96.464844 160h72v16h-72zm0 0" fill="#f7aa72"/><path d="m96.464844 200h72v16h-72zm0 0" fill="#f7aa72"/><path d="m76.464844 0c-19.871094.0234375-35.976563 16.125-36 36v72.6875l-21.65625 21.65625 11.3125 11.3125 10.34375-10.34375v17.375l-21.65625 21.65625 11.3125 11.3125 10.34375-10.34375v20.6875h16v-20.6875l10.34375 10.34375 11.3125-11.3125-21.65625-21.65625v-17.375l10.34375 10.34375 11.3125-11.3125-21.65625-21.65625v-72.6875c0-11.046875 8.957031-20 20-20 11.046875 0 20 8.953125 20 20v20h16v-20c-.019532-19.875-16.125-35.9765625-36-36zm0 0" fill="#8bb53c"/><path d="m232.464844 163.3125 10.34375 10.34375 11.3125-11.3125-21.65625-21.65625v-104.6875c0-19.882812-16.117188-36-36-36-19.882813 0-36 16.117188-36 36v12h16v-12c0-11.046875 8.957031-20 20-20 11.046875 0 20 8.953125 20 20v104.6875l-21.65625 21.65625 11.3125 11.3125 10.34375-10.34375v17.375l-21.65625 21.65625 11.3125 11.3125 10.34375-10.34375v20.6875h16v-20.6875l10.34375 10.34375 11.3125-11.3125-21.65625-21.65625zm0 0" fill="#8bb53c"/><path d="m68.464844 352.175781 16.921875 6.160157 6.71875-14.574219-18.160157-6.609375zm0 0" fill="#f05b11"/><path d="m55.480469 364.488281-22.550781-8.214843-2.742188 7.527343-2.105469 7.734375 21.917969 7.976563zm0 0" fill="#f05b11"/><path d="m33.515625 424.59375 18.160156 6.8125 6.726563-14.566406-19.265625-7.230469zm0 0" fill="#f05b11"/><path d="m136.464844 320h-28.664063l1.328125 16h27.335938zm0 0" fill="#fd6f0a"/><path d="m136.464844 360v16h24l1.335937-16zm0 0" fill="#fd6f0a"/><path d="m136.464844 392h-22.664063l1.328125 16h21.335938zm0 0" fill="#fd6f0a"/><path d="m201.320312 319.457031-26.398437 10.4375 6.710937 14.554688 25.578126-10.121094zm0 0" fill="#f05b11"/><path d="m217.960938 364.480469-23.207032 8.40625 6.726563 14.585937 21.929687-7.953125zm0 0" fill="#f05b11"/><path d="m234.632812 409.488281 18.953126-7.6875-4.230469-15.554687-20.730469 8.410156zm0 0" fill="#f05b11"/><path d="m368.464844 104h-136v-68c0-19.882812-16.117188-36-36-36-19.882813 0-36 16.117188-36 36v4h-16v-4c-.019532-19.875-16.125-35.9765625-36-36-5.566406.0351562-11.046875 1.378906-16 3.921875-4.953125-2.542969-10.433594-3.8867188-16-3.921875-19.871094.0234375-35.976563 16.125-36 36v72.6875l-21.65625 21.65625 11.3125 11.3125 10.34375-10.34375v17.375l-21.65625 21.65625 11.3125 11.3125 10.34375-10.34375v44.6875c.027344 22.082031 17.921875 39.972656 40 40h17.875l-10.84375 18.070312c-9.761719-3.347656-20.480469-2.5-29.597656 2.339844-9.117188 4.839844-15.824219 13.242188-18.519532 23.207032l-38.015625 139.582031c-3.394531 12.734375 3.453125 25.960937 15.816407 30.535156 2.742187 1 5.640624 1.507813 8.558593 1.503906 9.9375.007813 18.980469-5.734375 23.199219-14.734375l52.710938-114.265625 9.511718 114.480469c1.101563 13.160156 12.101563 23.28125 25.304688 23.28125 13.207031 0 24.207031-10.121094 25.304687-23.28125l9.601563-115.398438 53.125 115.199219c4.230468 8.96875 13.257812 14.6875 23.167968 14.679688 2.921876.003906 5.820313-.503907 8.5625-1.503907 12.351563-4.5625 19.207032-17.765624 15.839844-30.496093l-38-139.582031c-2.726562-10.039063-9.511718-18.488282-18.722656-23.316407-9.214844-4.828125-20.023438-5.597656-29.828125-2.125l-10.921875-18.175781h193.871094c4.417968 0 8-3.582031 8-8v-136c0-4.417969-3.582032-8-8-8zm-192-68c0-11.046875 8.957031-20 20-20 11.046875 0 20 8.953125 20 20v42.113281l-10.207032-20.425781c-5.390624-10.867188-16.492187-17.726562-28.625-17.6875h-1.167968zm-48 0v4h-16v-4c0-7.046875-2.082032-13.933594-5.984375-19.800781.664062-.0625 1.304687-.199219 1.984375-.199219 11.046875 0 20 8.953125 20 20zm-40 12v-12c.015625-4.289062 1.417968-8.457031 4-11.878906 2.582031 3.421875 3.988281 7.589844 4 11.878906v4c-4.417969 0-8 3.582031-8 8-.007813 11.816406 4.359375 23.214844 12.257812 32h-12.257812zm-12-32c.679687 0 1.320312.136719 1.984375.199219-3.898438 5.867187-5.980469 12.753906-5.984375 19.800781v44.800781c-5.820313 1.234375-11.289063 3.761719-16 7.398438v-52.199219c0-11.046875 8.957031-20 20-20zm-20 200v-44.6875l10.34375 10.34375 11.3125-11.3125-21.65625-21.65625v-17.375l10.34375 10.34375 11.3125-11.3125-19.734375-19.734375c3.765625-8.855469 12.457031-14.605469 22.078125-14.609375h72c4.417968 0 8 3.582031 8 8v16h-64v16h64v24h-64v16h64v24h-64v16h64v16c0 4.417969-3.582032 8-8 8h-72c-13.253906 0-24-10.746094-24-24zm72 40v16.894531c-7.511719 1.640625-14.335938 5.550781-19.550782 11.203125-1.03125 1.207032-1.980468 2.480469-2.839843 3.8125-1.429688-2.019531-3.054688-3.894531-4.847657-5.597656l15.765626-26.3125zm-33.488282 62.441406-10.398437 22.574219-10.617187-3.863281-5.496094 15.023437 9.378906 3.417969-26.90625 58.316406-11.871094-4.308594-5.472656 15.03125 10.625 3.871094-9.832031 21.296875c-1.992188 4.523438-7.152344 6.730469-11.796875 5.039063-4.644532-1.6875-7.183594-6.691406-5.804688-11.441406l18.824219-69.117188 14.402344 5.230469 5.476562-15.023438-15.636719-5.695312 14.972657-54.96875c2.136719-7.792969 8.46875-13.722657 16.382812-15.339844 7.914063-1.621094 16.066407 1.347656 21.089844 7.675781 5.023437 6.324219 6.0625 14.9375 2.6875 22.28125zm41.488282 145.558594c-4.871094-.027344-8.921875-3.753906-9.351563-8.609375l-3.953125-47.390625h13.304688v-16h-14.640625l-4.664063-56h19.304688v-16h-20.640625l-.726563-8.800781c-.660156-8.050781 3.261719-15.792969 10.144532-20.023438 6.886718-4.230469 15.5625-4.230469 22.445312 0 6.886719 4.230469 10.808594 11.972657 10.144531 20.023438l-4.0625 48.800781h-17.304687v16h16l-6.621094 79.390625c-.433594 4.863281-4.496094 8.59375-9.378906 8.609375zm71.320312-173.601562c5.34375 2.738281 9.277344 7.609374 10.824219 13.410156l23.457031 85.960937-13.136718 4.796875 5.480468 15.035156 11.871094-4.320312 10.402344 38.132812c1.3125 4.726563-1.230469 9.667969-5.839844 11.34375-4.609375 1.675782-9.734375-.476562-11.761719-4.941406l-30.007812-65.054687 14.398437-5.234375-5.460937-15.023438-15.640625 5.679688-13.503906-29.175782 18.132812-6.601562-5.46875-15.03125-19.394531 7.058594-3.6875-8c-2.511719-5.445313-2.628907-11.695313-.320313-17.230469 2.304688-5.535156 6.820313-9.855469 12.457032-11.90625 2.363281-.859375 4.855468-1.296875 7.367187-1.296875 3.421875 0 6.796875.824219 9.832031 2.398438zm-35.894531-7.824219c-1.78125 1.707031-3.390625 3.582031-4.800781 5.601562-.925782-1.445312-1.953125-2.820312-3.070313-4.121093-5.222656-5.632813-12.046875-9.53125-19.554687-11.160157v-16.894531h11.472656zm188.574219-42.574219h-185.472656c.949218-2.5625 1.445312-5.269531 1.472656-8v-128c-.023438-6.980469-3.101563-13.597656-8.421875-18.113281-.90625-3.445313-4.011719-5.859375-7.578125-5.886719h-24c-14.585938-.019531-27.320313-9.882812-30.992188-24h72.160156c6.066407-.019531 11.613282 3.410156 14.3125 8.839844l24.519532 49.046875v26.800781l-21.65625 21.65625 11.3125 11.3125 10.34375-10.34375v17.375l-21.65625 21.65625 11.3125 11.3125 10.34375-10.34375v20.6875h16v-20.6875l10.34375 10.34375 11.3125-11.3125-21.65625-21.65625v-17.375l10.34375 10.34375 11.3125-11.3125-21.65625-21.65625v-20.6875h128zm0 0"/></svg>