<svg height="464pt" viewBox="0 0 464 464" width="464pt" xmlns="http://www.w3.org/2000/svg"><path d="m329.679688 122.160156c-3.394532-.832031-6.84375-1.421875-10.320313-1.761718-2.398437-.238282-4.878906-.398438-7.359375-.398438s-4.960938.160156-7.359375.398438c-3.476563.339843-6.925781.929687-10.320313 1.761718-29.742187 7.582032-51.417968 33.175782-54 63.761719-.230468 2.015625-.335937 4.046875-.320312 6.078125.933594 18.910156 3.800781 37.675781 8.558594 56 5.644531 24.785156 13.847656 48.914062 24.480468 72 4.515626 9.925781 10.324219 19.207031 17.28125 27.601562 5.128907 7.035157 13.015626 11.542969 21.679688 12.398438 14.320312 0 27.761719-16.71875 38.960938-40 10.632812-23.085938 18.835937-47.214844 24.480468-72 4.757813-18.324219 7.625-37.089844 8.558594-56-.015625-32.960938-22.378906-61.714844-54.320312-69.839844zm0 0" fill="#ff5023"/><path d="m290 320c-3.691406-24.632812-10.101562-48.78125-19.121094-72-7.222656-20.605469-16.691406-40.351562-28.238281-58.878906-.800781-1.121094-1.519531-2.160156-2.320313-3.199219-2.507812-3.226563-5.320312-6.199219-8.398437-8.882813-20.011719-18.214843-48.574219-23.597656-73.84375-13.917968-3.261719 1.203125-6.417969 2.675781-9.4375 4.398437-2.160156 1.199219-4.242187 2.480469-6.320313 3.921875-2.082031 1.4375-3.921874 2.878906-5.761718 4.480469-2.636719 2.289063-5.121094 4.746094-7.4375 7.359375-15.355469 17.78125-21.0625 41.945312-15.28125 64.71875 2.078125 8.503906 5.742187 16.535156 10.800781 23.679688 14.035156 17.839843 30.03125 34.046874 47.679687 48.320312 31.441407 26.558594 69.839844 51.761719 94.160157 51.761719 4.785156.160156 9.503906-1.152344 13.519531-3.761719 6.140625-5.058594 9.882812-12.457031 10.320312-20.398438 1.125-9.175781 1.015626-18.457031-.320312-27.601562zm0 0" fill="#ff9811"/><path d="m371.710938 88.574219c-17.117188 29.648437-57.09375 38.898437-59.597657 39.394531l-.113281.03125v-.113281c-.800781-2.398438-12.800781-41.664063 4.320312-71.3125 5.222657-8.753907 12.289063-16.265625 20.710938-22.015625 11.800781-8.160156 25.015625-14.0625 38.96875-17.40625 4.078125 13.753906 5.574219 28.148437 4.40625 42.449218-.761719 10.171876-3.726562 20.0625-8.695312 28.972657zm0 0" fill="#5eac24"/><path d="m307.710938 56.574219c17.121093 29.648437 5.144531 68.898437 4.320312 71.3125l-.03125.113281h-.113281c-2.503907-.496094-42.480469-9.742188-59.597657-39.390625-4.96875-8.914063-7.933593-18.800781-8.695312-28.976563-1.171875-14.3125.324219-28.714843 4.40625-42.480468 13.953125 3.34375 27.167969 9.246094 38.96875 17.40625 8.433594 5.746094 15.511719 13.257812 20.742188 22.015625zm0 0" fill="#5eac24"/><path d="m344 64c0 34.238281-30 62.238281-31.921875 63.921875l-.078125.078125-.078125-.078125c-1.921875-1.683594-31.921875-29.683594-31.921875-63.921875.152344-10.203125 2.527344-20.25 6.960938-29.441406 6.136718-12.96875 14.628906-24.683594 25.039062-34.558594 10.410156 9.875 18.902344 21.589844 25.039062 34.558594 4.433594 9.191406 6.808594 19.238281 6.960938 29.441406zm0 0" fill="#c2fb3b"/><path d="m170.304688 109.457031c2.984374 34.109375-24.464844 64.613281-26.234376 66.453125l-.070312.089844-.089844-.070312c-2.054687-1.503907-34.398437-26.785157-37.367187-60.898438-.734375-10.175781.757812-20.390625 4.367187-29.933594 4.984375-13.457031 12.421875-25.871094 21.9375-36.609375 11.234375 8.925781 20.710938 19.859375 27.953125 32.246094 5.21875 8.769531 8.460938 18.570313 9.503907 28.722656zm0 0" fill="#5eac24"/><path d="m99.519531 119.953125c31.03125 14.445313 43.726563 53.488281 44.480469 55.941406v.105469h-.105469c-2.335937 1.03125-40.390625 16.382812-71.421875 1.910156-9.175781-4.4375-17.277344-10.824218-23.738281-18.710937-9.15625-11.042969-16.1875-23.6875-20.734375-37.296875 13.347656-5.261719 27.554688-8.003906 41.902344-8.085938 10.203125-.128906 20.308594 1.964844 29.617187 6.136719zm0 0" fill="#5eac24"/><path d="m133.503906 105.214844c19.640625 28.050781 11.128906 68.191406 10.511719 70.671875l-.015625.113281h-.113281c-2.535157-.28125-43.199219-6.007812-62.808594-34.054688-5.730469-8.445312-9.554687-18.035156-11.199219-28.105468-2.410156-14.144532-2.175781-28.613282.6875-42.671875 14.191406 2.113281 27.871094 6.84375 40.335938 13.945312 8.902344 4.980469 16.613281 11.84375 22.601562 20.101563zm0 0" fill="#c2fb3b"/><path d="m0 248h464v216h-464zm0 0" fill="#957856"/><g fill="#6a563d"><path d="m60 272c6.628906 0 12 5.371094 12 12s-5.371094 12-12 12-12-5.371094-12-12 5.371094-12 12-12zm0 0"/><path d="m60 416c6.628906 0 12 5.371094 12 12s-5.371094 12-12 12-12-5.371094-12-12 5.371094-12 12-12zm0 0"/><path d="m404 272c6.628906 0 12 5.371094 12 12s-5.371094 12-12 12-12-5.371094-12-12 5.371094-12 12-12zm0 0"/><path d="m404 416c6.628906 0 12 5.371094 12 12s-5.371094 12-12 12-12-5.371094-12-12 5.371094-12 12-12zm0 0"/></g><path d="m0 320h464v72h-464zm0 0" fill="#a78966"/><path d="m60 344c6.628906 0 12 5.371094 12 12s-5.371094 12-12 12-12-5.371094-12-12 5.371094-12 12-12zm0 0" fill="#6a563d"/><path d="m404 344c6.628906 0 12 5.371094 12 12s-5.371094 12-12 12-12-5.371094-12-12 5.371094-12 12-12zm0 0" fill="#6a563d"/><path d="m100 256h48c6.628906 0 12 5.371094 12 12s-5.371094 12-12 12h-48c-6.628906 0-12-5.371094-12-12s5.371094-12 12-12zm0 0" fill="#ad967c"/><path d="m216 188c0-6.628906-10.746094-12-24-12s-24 5.371094-24 12 10.746094 12 24 12 24-5.371094 24-12zm0 0" fill="#ffba60"/><path d="m285.996094 146.679688c-5.738282-3.3125-14.867188 1.753906-20.390625 11.320312-5.523438 9.566406-5.347657 20.007812.390625 23.320312 5.738281 3.3125 14.871094-1.753906 20.394531-11.320312 5.519531-9.566406 5.34375-20.007812-.394531-23.320312zm0 0" fill="#ff8a6c"/><path d="m304 48c0-4.417969-1.789062-8-4-8s-4 3.582031-4 8 1.789062 8 4 8 4-3.582031 4-8zm0 0" fill="#b2fa09"/></svg>