<svg height="512pt" viewBox="0 -50 512 512" width="512pt" xmlns="http://www.w3.org/2000/svg"><path d="m56.5 312.414062h49.773438v49.773438h-49.773438zm0 0" fill="#805333"/><path d="m56.5 158.832031h49.773438v44.242188h-49.773438zm0 0" fill="#805333"/><path d="m405.726562 312.414062h49.773438v49.773438h-49.773438zm0 0" fill="#805333"/><path d="m434.5 312.410156h21v49.773438h-21zm0 0" fill="#664229"/><path d="m405.726562 158.832031h49.773438v44.242188h-49.773438zm0 0" fill="#805333"/><path d="m434.5 158.832031h21v44.242188h-21zm0 0" fill="#664229"/><path d="m84.582031 312.410156h21v49.773438h-21zm0 0" fill="#664229"/><path d="m84.582031 158.832031h21v44.242188h-21zm0 0" fill="#664229"/><path d="m81.386719 267.464844c-4.140625 0-7.5-3.355469-7.5-7.5v-4.332032c0-4.140624 3.359375-7.5 7.5-7.5s7.5 3.359376 7.5 7.5v4.332032c0 4.144531-3.359375 7.5-7.5 7.5zm0 0"/><path d="m430.613281 267.464844c-4.140625 0-7.5-3.355469-7.5-7.5v-4.332032c0-4.140624 3.359375-7.5 7.5-7.5s7.5 3.359376 7.5 7.5v4.332032c0 4.144531-3.359375 7.5-7.5 7.5zm0 0"/><path d="m155.128906 362.1875h31.753906c2.539063-3.769531 3.742188-8.414062 3.113282-13.175781-1.625-12.328125-3.359375-24.53125-5.214844-36.601563h-61.117188c9.988282 16.472656 20.453126 33.007813 31.339844 49.605469.039063.058594.085938.113281.125.171875zm0 0" fill="#ff940c"/><path d="m189.996094 349.011719c-1.625-12.328125-3.359375-24.53125-5.214844-36.601563h-61.117188c3.027344 4.996094 6.101563 9.996094 9.214844 15h23.328125c7.652344 0 14.148438 5.609375 15.253907 13.183594 1.039062 7.152344 2.039062 14.351562 3 21.59375h12.421874c2.539063-3.769531 3.742188-8.414062 3.113282-13.175781zm0 0" fill="#e8870b"/><path d="m95.082031 130.144531 3.191407-3.03125c5.96875-5.671875 9.390624-13.515625 9.484374-21.746093l.125-11.023438c.101563-8.992188 7.476563-16.203125 16.46875-16.101562 8.242188.09375 15.117188 6.332031 16.007813 14.523437l1.113281 10.253906c1.371094 12.59375-6.96875 24.195313-19.339844 26.910157l-17.589843 3.863281zm0 0" fill="#74c26c"/><path d="m83.960938 134.277344-4.398438-.210938c-8.222656-.394531-15.933594-4.101562-21.382812-10.277344l-7.292969-8.265624c-5.949219-6.746094-16.242188-7.390626-22.984375-1.4375-6.183594 5.453124-7.316406 14.664062-2.640625 21.449218l5.851562 8.496094c7.1875 10.429688 21.078125 13.769531 32.222657 7.75l15.839843-8.5625zm0 0" fill="#74c26c"/><path d="m91.300781 136.996094-17.433593-7.984375c-30.261719-13.867188-43.554688-49.636719-29.6875-79.894531l2.820312-6.160157c2.851562-6.226562 10.210938-8.960937 16.4375-6.109375l6.160156 2.824219c30.261719 13.863281 43.554688 49.632813 29.6875 79.890625zm0 0" fill="#74c26c"/><path d="m69.597656 39.671875-6.160156-2.824219c-4.722656-2.164062-10.097656-1.109375-13.664062 2.242188l1.265624.582031c30.261719 13.863281 43.554688 49.632813 29.691407 79.894531l-4.769531 10.402344 15.339843 7.027344 7.984375-17.433594c13.863282-30.257812.574219-66.027344-29.6875-79.890625zm0 0" fill="#68ad61"/><path d="m248.21875 203.1875c3.9375-6.664062 7.773438-13.316406 11.476562-19.964844 13.6875-24.542968 3.710938-55.53125-21.816406-67.28125-25.527344-11.753906-55.558594.808594-65.308594 27.164063-7.160156 19.351562-13.78125 39.414062-19.953124 60.082031zm0 0" fill="#ff940c"/><path d="m237.878906 115.941406c-18.949218-8.726562-40.382812-4.050781-54.15625 9.71875 11.445313-4.171875 24.488282-4.039062 36.53125 1.503906 25.523438 11.753907 35.503906 42.742188 21.816406 67.285157-1.625 2.910156-3.269531 5.824219-4.941406 8.734375h11.089844c3.941406-6.660156 7.773438-13.3125 11.480469-19.960938 13.683593-24.542968 3.707031-55.53125-21.820313-67.28125zm0 0" fill="#e8870b"/><path d="m154.367188 169.027344c-7.730469-27.019532-36.726563-41.816406-63.066407-32.03125-11.289062 4.195312-19.984375 12.132812-25.324219 21.835937h40.296876v44.242188h-41.519532c.015625.035156.035156.074219.050782.113281h87.8125c1.917968-6.429688 3.890624-12.796875 5.898437-19.105469-1.347656-5.058593-2.726563-10.082031-4.148437-15.054687zm0 0" fill="#ff940c"/><path d="m64.753906 203.074219c.015625.035156.035156.074219.050782.113281h25.816406v-.113281zm0 0" fill="#d68a23"/><path d="m154.367188 169.027344c-7.730469-27.019532-36.726563-41.816406-63.066407-32.03125-10.476562 3.894531-18.722656 11.011718-24.121093 19.773437 2.628906-1.613281 5.457031-3.003906 8.46875-4.121093 26.34375-9.789063 55.339843 5.011718 63.066406 32.03125 1.421875 4.972656 2.800781 9.996093 4.152344 15.054687-.367188 1.148437-.730469 2.300781-1.09375 3.453125h10.84375c1.917968-6.429688 3.890624-12.796875 5.898437-19.105469-1.347656-5.058593-2.726563-10.082031-4.148437-15.054687zm0 0" fill="#e8870b"/><path d="m234.625 108.824219-2.953125-3.269531c-5.523437-6.105469-8.339844-14.183594-7.808594-22.398438l.707031-11c.578126-8.976562-6.226562-16.722656-15.203124-17.300781-8.226563-.53125-15.550782 5.167969-17.058594 13.269531l-1.886719 10.140625c-2.320313 12.453125 5.117187 24.652344 17.246094 28.292969l17.246093 5.183594zm0 0" fill="#74c26c"/><path d="m237.878906 115.941406-6.644531-17.988281c-11.535156-31.222656 4.425781-65.882813 35.648437-77.417969l6.355469-2.347656c6.421875-2.375 13.554688.910156 15.925781 7.332031l2.351563 6.359375c11.535156 31.222656-4.425781 65.882813-35.648437 77.417969zm0 0" fill="#74c26c"/><path d="m291.511719 31.875-2.347657-6.355469c-1.992187-5.394531-7.339843-8.574219-12.804687-8.050781 10.71875 30.917969-5.226563 64.863281-36.0625 76.257812l-9.34375 3.449219c.09375.261719.1875.519531.28125.777344l6.644531 17.988281 17.988282-6.644531c31.222656-11.535156 47.179687-46.199219 35.644531-77.421875zm0 0" fill="#68ad61"/><path d="m271.0625 362.1875c8.410156-16.691406 16.445312-33.289062 24.039062-49.773438h-64.746093c-.949219 16.363282-1.636719 32.964844-2.105469 49.773438zm0 0" fill="#ff940c"/><path d="m230.355469 327.410156h57.730469c2.378906-5.007812 4.714843-10.007812 7.015624-15h-64.746093c-.949219 16.363282-1.636719 32.96875-2.105469 49.773438h.480469c.421875-11.699219.960937-23.292969 1.625-34.773438zm0 0" fill="#e8870b"/><path d="m354.179688 114.554688c-28.058594 1.570312-48.710938 26.734374-44.984376 54.589843 1.503907 11.234375 3.257813 22.585938 5.222657 34.042969h88.84375c.84375-13.300781 1.429687-26.445312 1.707031-39.398438.597656-28.09375-22.730469-50.800781-50.789062-49.234374zm0 0" fill="#ff940c"/><path d="m354.179688 114.554688c-19.539063 1.09375-35.484376 13.628906-42.109376 30.546874 8.167969-9.191406 19.851563-15.289062 33.210938-16.039062 28.058594-1.566406 51.386719 21.140625 50.789062 49.234375-.175781 8.222656-.476562 16.523437-.886718 24.890625h8.078125c.84375-13.300781 1.429687-26.445312 1.707031-39.398438.597656-28.09375-22.730469-50.800781-50.789062-49.234374zm0 0" fill="#e8870b"/><path d="m309.199219 169.144531c-1.011719-7.558593-.21875-14.910156 2.023437-21.652343-2.3125-1-4.734375-1.839844-7.257812-2.484376-13.914063-3.558593-27.835938-.644531-38.777344 6.738282 1.734375 10.40625.085938 21.476562-5.492188 31.476562-3.703124 6.648438-7.539062 13.300782-11.476562 19.964844h66.199219c-1.964844-11.457031-3.71875-22.808594-5.21875-34.042969zm0 0" fill="#e8870b"/><path d="m338.609375 312.410156c3.15625 11.90625 6.472656 23.886719 9.949219 35.941406 2.46875 8.574219 10.554687 14.300782 19.464844 13.804688 8.910156-.5 16.304687-7.09375 17.804687-15.890625 1.9375-11.363281 3.75-22.648437 5.4375-33.855469zm0 0" fill="#ff940c"/><path d="m388.9375 327.410156c.800781-5.015625 1.574219-10.015625 2.324219-15h-52.652344c1.324219 4.988282 2.671875 9.988282 4.050781 15zm0 0" fill="#e8870b"/><g fill="#74c26c"><path d="m359.816406 109.128906 3.949219-1.957031c7.378906-3.652344 12.960937-10.132813 15.484375-17.96875l3.375-10.496094c2.753906-8.5625 11.929688-13.269531 20.492188-10.515625 7.84375 2.523438 12.570312 10.511719 11 18.605469l-1.964844 10.125c-2.414063 12.433594-13.804688 21.054687-26.429688 19.992187l-17.945312-1.503906zm0 0"/><path d="m347.972656 109.789062-4.140625-1.5c-7.738281-2.808593-14.011719-8.628906-17.390625-16.136718l-4.523437-10.050782c-3.691407-8.203124-13.335938-11.859374-21.535157-8.167968-7.519531 3.382812-11.320312 11.851562-8.859374 19.714844l3.078124 9.84375c3.785157 12.089843 16.066407 19.386718 28.492188 16.925781l17.667969-3.5zm0 0"/><path d="m294.601562 103.492188-3.078124-9.84375c-.070313-.226563-.117188-.453126-.179688-.679688-4.15625-.046875-8.332031 1.484375-11.542969 4.613281l-7.898437 7.691407c-5.898438 5.746093-13.867188 8.859374-22.097656 8.632812l-4.402344-.121094 4.09375 9.273438 15.152344 9.738281c10.65625 6.847656 24.757812 4.566406 32.714843-5.292969l6.476563-8.027344c.570312-.710937 1.066406-1.460937 1.503906-2.234374-4.972656-3.035157-8.882812-7.8125-10.742188-13.75zm0 0"/><path d="m354.179688 114.554688-14.292969-12.78125c-24.8125-22.183594-26.945313-60.285157-4.757813-85.097657l4.515625-5.050781c4.566407-5.105469 12.402344-5.542969 17.507813-.980469l5.050781 4.519531c24.816406 22.183594 26.945313 60.285157 4.757813 85.097657zm0 0"/></g><path d="m362.203125 15.164062-5.050781-4.519531c-5.105469-4.5625-12.941406-4.125-17.507813.980469l-.917969 1.027344 2.808594 2.511718c24.8125 22.183594 26.945313 60.285157 4.757813 85.097657l-3.597657 4.027343 11.484376 10.269532 12.78125-14.296875c22.1875-24.8125 20.054687-62.914063-4.757813-85.097657zm0 0" fill="#68ad61"/><path d="m497.75 362.1875h-483.5c-3.726562 0-6.75 3.019531-6.75 6.75v29.613281c0 3.726563 3.023438 6.75 6.75 6.75h483.5c3.726562 0 6.75-3.023437 6.75-6.75v-29.613281c0-3.730469-3.023438-6.75-6.75-6.75zm0 0" fill="#bf7b4c"/><path d="m497.75 362.1875h-49c3.726562 0 6.75 3.019531 6.75 6.75v29.613281c0 3.726563-3.023438 6.75-6.75 6.75h49c3.726562 0 6.75-3.023437 6.75-6.75v-29.613281c0-3.730469-3.023438-6.75-6.75-6.75zm0 0" fill="#a86c43"/><path d="m7.5 203.1875h497v109.226562h-497zm0 0" fill="#bf7b4c"/><path d="m455.5 203.1875h49v109.226562h-49zm0 0" fill="#a86c43"/><path d="m88.886719 259.964844v-4.332032c0-4.140624-3.359375-7.5-7.5-7.5s-7.5 3.359376-7.5 7.5v4.332032c0 4.144531 3.359375 7.5 7.5 7.5s7.5-3.355469 7.5-7.5zm0 0"/><path d="m438.113281 259.964844v-4.332032c0-4.140624-3.359375-7.5-7.5-7.5s-7.5 3.359376-7.5 7.5v4.332032c0 4.144531 3.359375 7.5 7.5 7.5s7.5-3.355469 7.5-7.5zm0 0"/><path d="m504.5 319.910156c4.140625 0 7.5-3.355468 7.5-7.5v-109.222656c0-4.144531-3.359375-7.5-7.5-7.5h-41.5v-36.855469c0-4.140625-3.359375-7.5-7.5-7.5h-44.207031c-2.199219-10.496093-7.386719-20.253906-15.023438-27.945312 11.59375-3.136719 20.835938-12.613281 23.246094-25.039063l1.964844-10.125c3.542969-18.28125-14.472657-33.316406-31.722657-26.796875.699219-36.714843-26.09375-54.347656-27.609374-56.371093-8.175782-7.3125-20.78125-6.605469-28.09375 1.570312l-4.519532 5.054688c-13.675781 15.296874-19.121094 35.136718-16.632812 54.042968-3.75-.957031-7.628906-.980468-11.363282-.078125 4.476563-22.902343-4.429687-39.09375-5.339843-42.722656-3.800781-10.292969-15.269531-15.574219-25.5625-11.773437-2.050781 1.265624-33.488281 7.761718-46.363281 42.3125-13.65625-12.398438-35.933594-5.007813-39.339844 13.292968l-1.886719 10.136719c-2.320313 12.445313 2.800781 24.648437 12.433594 31.820313-13.8125 6.0625-24.691407 17.589843-29.945313 31.792968-2.273437 6.140625-4.519531 12.4375-6.738281 18.878906-5.0625-11.21875-13.742187-20.566406-24.679687-26.386718 10.152343-6.421875 16.179687-18.203125 14.808593-30.785156l-1.113281-10.253907c-2.007812-18.449219-23.507812-27.589843-38.183594-16.214843-.476562-1.640626-1.011718-3.269532-1.613281-4.886719-11.664063-31.386719-38.96875-39.136719-41.457031-40.824219-9.996094-4.582031-21.796875-.199219-26.378906 9.800781-.675782 2.726563-18.0625 29.355469-2.78125 62.710938-18.316407.945312-28.929688 21.839843-18.3125 37.25 3.488281 3.679687 9.804687 20.804687 29.914062 22.386719v33.507812h-41.5c-4.140625 0-7.5 3.355469-7.5 7.5v38.445312c0 4.140626 3.359375 7.5 7.5 7.5s7.5-3.359374 7.5-7.5v-30.945312h482v94.226562h-482v-35.28125c0-4.140624-3.359375-7.5-7.5-7.5s-7.5 3.359376-7.5 7.5v42.78125c0 4.140626 3.359375 7.5 7.5 7.5h41.5v34.773438h-34.75c-7.855469 0-14.25 6.390625-14.25 14.25v29.613281c0 7.855469 6.394531 14.25 14.25 14.25h175.417969c4.140625 0 7.5-3.359375 7.5-7.5 0-4.144531-3.359375-7.5-7.5-7.5h-174.667969v-28.113281h482v28.113281h-279.332031c-4.144531 0-7.5 3.355469-7.5 7.5 0 4.140625 3.355469 7.5 7.5 7.5h280.082031c7.855469 0 14.25-6.394531 14.25-14.25v-29.613281c0-7.859375-6.394531-14.25-14.25-14.25h-34.75v-34.773438h41.5zm-91.273438-153.578125h34.773438v29.242188h-34.773438zm-114.136718-29.875c3.414062-2.941406 4.773437-5.222656 8.613281-9.828125 1.820313.628906 3.707031 1.097656 5.632813 1.394532-2.476563 3.125-4.59375 6.492187-6.328126 10.035156-2.570312-.71875-5.207031-1.257813-7.917968-1.601563zm-4.101563-17.957031-3.464843 4.296875c-5.558594 6.890625-15.371094 8.476563-22.820313 3.6875l-9.449219-6.070313c15.585938-3.65625 21.761719-14.921874 27.011719-18.457031 1.144531 2.757813 1.769531 9.308594 8.722656 16.542969zm105.832031-43.167969c4.226563 1.359375 6.78125 5.671875 5.933594 10.035157l-1.964844 10.125c-1.683593 8.691406-9.617187 14.6875-18.4375 13.949218l-11.191406-.941406c11.125-9.707031 11.886719-20.871094 14.605469-27.496094 1.488281-4.621094 6.429687-7.160156 11.054687-5.671875zm-60.101562-53.65625 4.519531-5.050781c1.800781-2.019531 4.90625-2.1875 6.914063-.386719l5.054687 4.515625c21.6875 19.394532 23.558594 52.820313 4.164063 74.507813l-7.78125 8.703125-8.703125-7.78125c-21.691407-19.394532-23.5625-52.816406-4.167969-74.507813zm-33.664062 58.324219c12.222656 0 7.332031 18.21875 25.601562 30.878906-8.324219 1.003906-15.007812 5.097656-23.402344-.035156-7.199218-4.402344-7.722656-10.601562-10.765625-20.15625-1.226562-5.519531 3.023438-10.6875 8.566407-10.6875zm-37.574219-52.429688 6.355469-2.347656c2.535156-.9375 5.355468.363282 6.292968 2.894532.589844 2.996093 11.914063 22.539062.78125 46.714843-11.746094 25.511719-35.4375 28.699219-40.597656 31.472657l-4.042969-10.949219c-10.082031-27.296875 3.917969-57.703125 31.210938-67.785157zm-71.6875 52.066407 1.886719-10.136719c.808593-4.332031 4.730468-7.449219 9.207031-7.160156 4.84375.308594 8.511719 4.484375 8.199219 9.332031.097656 7.125-3.285157 17.828125 3.5 30.9375l-10.757813-3.230469c-8.484375-2.550781-13.65625-11.035156-12.035156-19.742187zm-18.1875 66.074219c14.429687-39.007813 71.339843-33.777344 78.183593 7.269531 2.792969 16.761719-4.480468 26.6875-13.859374 42.707031h-81.195313c5.21875-16.886719 10.730469-33.378906 16.871094-49.976562zm-80.832031 49.863281h-34.773438v-29.242188h34.773438zm16.609374-101.144531c.054688-4.8125 3.984376-8.6875 8.78125-8.6875 4.488282 0 8.253907 3.386718 8.738282 7.835937l1.113281 10.253906c.957031 8.804688-4.84375 16.875-13.492187 18.773438l-10.96875 2.40625c3.605468-5.839844 5.621093-12.625 5.703124-19.558594zm-61.5625-48.351563c.820313-1.792969 2.601563-2.855469 4.460938-2.855469 1.777344 0 2.445312.765625 8.191406 3.265625 12.8125 5.871094 22.574219 16.382813 27.484375 29.59375 9.785157 26.328125-4.679687 45.359375-6.351562 50.972657-4.871094-3.117188-28.339844-8.191407-38.101563-34.453126-9.226562-24.835937 3.5-43.570312 4.316406-46.523437zm-16.53125 93.695313-5.851562-8.492188c-4.03125-5.851562.226562-13.769531 7.222656-13.769531 9.652344 0 11.460938 16.160156 30.988282 22.332031l-9.878907 5.339844c-7.792969 4.207031-17.457031 1.882812-22.480469-5.410156zm68.984376 11.558593h-24.71875c22.453124-19.378906 57.417968-8.851562 65.601562 19.757813 1.152344 4.039062 2.320312 8.246094 3.546875 12.804687-1.234375 3.894531-2.453125 7.824219-3.660156 11.789063h-33.269531v-36.851563c0-4.140625-3.355469-7.5-7.5-7.5zm166.933593 4.347657c9.046875-4.757813 19.550781-5.878907 29.027344-3.375-1.882813 9.863281-1.199219 15.546874 3.328125 43.382812h-44.296875c6.449219-11.269531 13.28125-21.898438 11.941406-40.007812zm47.554688 40.007812c-1.125-6.816406-4.023438-25.371094-4.378907-29.914062-1.710937-22.363282 15.089844-42.4375 38.214844-43.730469 23.726563-1.320313 43.378906 17.824219 42.871094 41.585937-.21875 10.222656-.644531 20.976563-1.269531 32.058594zm76.945312 124.222656h.519531v34.773438h-7.28125c1.890626-3.925782 2.148438-4.875 6.761719-34.773438zm-15.179687 0c-1.292969 8.316406-2.664063 16.722656-4.09375 25.097656-2.066406 12.113282-19.230469 13.203126-22.667969 1.265626-2.542969-8.816407-5.015625-17.648438-7.378906-26.359376h34.140625zm-49.675782 0c1.089844 4.066406 8.269532 30.929688 10.125 34.773438h-59.785156c5.867188-11.84375 11.457032-23.484375 16.703125-34.773438zm-135.386718 34.777344c.507812-4.171875.300781-5.984375-3.96875-34.773438h28.933594c-.59375 11.261719-1.082032 22.90625-1.457032 34.773438zm-78.015625-34.777344c6.917969 11.339844 14.234375 22.984375 21.839843 34.773438h-27.515624v-34.773438zm-55.449219 34.777344v-34.773438h34.773438v34.773438zm95.171875 0c-7.679687-11.761719-15.082031-23.402344-22.117187-34.773438h41.277343c4.816407 32.203126 4.671875 32.011719 3.875 34.773438zm76.804687 0c.382813-11.875.875-23.519531 1.472657-34.773438h45.886719c-5.324219 11.3125-10.984376 22.957032-16.898438 34.773438zm212.023438 0h-34.773438v-34.773438h34.773438zm0 0"/></svg>